<svg width="31" height="31" viewBox="0 0 31 31" fill="none" xmlns="http://www.w3.org/2000/svg">
<path d="M14.7891 0.365234C14.275 0.365234 13.8516 0.788672 13.8516 1.30273C13.8516 1.32398 13.8503 1.34086 13.8516 1.36148L11.5078 2.04511C11.3338 1.84368 11.0867 1.71304 10.8047 1.71304C10.2906 1.71304 9.86719 2.13648 9.86719 2.65054C9.86719 2.69367 9.88106 2.72617 9.88669 2.76773L5.51169 5.65836C5.35654 5.54611 5.16742 5.46304 4.96481 5.46304C4.45075 5.46304 4.02731 5.90605 4.02731 6.42011C4.02731 6.6673 4.12376 6.87818 4.28122 7.04511L2.34763 10.9903C2.28669 10.9778 2.21657 10.971 2.15231 10.971C1.63825 10.971 1.21481 11.414 1.21481 11.928C1.21481 12.2297 1.36319 12.4803 1.58591 12.6507L1.39059 13.0804C1.38428 13.0803 1.37741 13.0804 1.37109 13.0804C0.857031 13.0804 0.433594 13.5234 0.433594 14.0374C0.433594 14.4294 0.676269 14.7398 1.01953 14.8773V17.9437C0.698106 18.094 0.472656 18.4269 0.472656 18.803C0.472656 19.3171 0.896094 19.721 1.41016 19.721C1.42291 19.721 1.43659 19.7215 1.44922 19.721L1.72266 20.3265C1.55396 20.498 1.44922 20.7335 1.44922 20.9905C1.44922 21.5046 1.87266 21.9085 2.38672 21.9085C2.43822 21.9085 2.49349 21.8973 2.54297 21.8891L5.72656 26.6938C5.61646 26.849 5.55078 27.0381 5.55078 27.2407C5.55078 27.7548 5.97422 28.1587 6.48828 28.1587C6.74531 28.1587 6.98081 28.0539 7.15234 27.8852L13.1094 30.3266C13.105 30.3641 13.0899 30.405 13.0899 30.4438C13.0899 30.9579 13.5133 31.3618 14.0274 31.3618C14.4129 31.3618 14.742 31.1298 14.8867 30.7954L16.6836 30.9712C16.798 31.3563 17.1601 31.6352 17.5821 31.6352C18.075 31.6352 18.4862 31.2606 18.5196 30.7758L20.6485 30.1704C20.8195 30.3743 21.0846 30.5024 21.3711 30.5024C21.8852 30.5024 22.3086 30.0985 22.3086 29.5844C22.3086 29.5052 22.2887 29.4241 22.2696 29.3501L26.1758 26.7915C26.3405 26.938 26.5634 27.0258 26.8008 27.0258C27.3149 27.0258 27.7383 26.6219 27.7383 26.1079C27.7383 25.8312 27.6208 25.5786 27.4258 25.4048L29.75 21.3032C29.7935 21.3094 29.8416 21.3226 29.8868 21.3226C30.4008 21.3226 30.8243 20.9187 30.8243 20.4046C30.8243 20.1279 30.7067 19.8753 30.5118 19.7015L30.6485 19.2913C31.154 19.2813 31.5664 18.881 31.5664 18.3734C31.5664 17.93 31.2614 17.532 30.8438 17.4359L30.8243 15.0921C31.1914 14.9654 31.4493 14.6397 31.4493 14.2327C31.4493 13.7575 31.0906 13.3533 30.629 13.2952L30.3555 12.2015C30.5691 12.0305 30.7071 11.7902 30.7071 11.4984C30.7071 10.9843 30.2837 10.5413 29.7696 10.5413C29.7117 10.5413 29.6488 10.5507 29.5938 10.5607L26.8008 5.89273C26.961 5.72579 27.0547 5.51492 27.0547 5.26773C27.0547 4.75367 26.6313 4.31074 26.1172 4.31074C25.8307 4.31074 25.5656 4.45524 25.3946 4.6623L20.004 2.06461C20.0046 2.05086 20.004 2.0396 20.004 2.02585C20.004 1.51179 19.5805 1.08835 19.0665 1.08835C18.7291 1.08835 18.4292 1.26523 18.2657 1.53761L15.7266 1.20554C15.6781 0.734411 15.2714 0.36573 14.7891 0.36573L14.7891 0.365234ZM14.7891 0.990234C14.9654 0.990234 15.1016 1.12642 15.1016 1.30273C15.1016 1.47905 14.9654 1.61523 14.7891 1.61523C14.6128 1.61523 14.4766 1.47905 14.4766 1.30273C14.4766 1.12642 14.6128 0.990234 14.7891 0.990234ZM19.0664 1.71289C19.2427 1.71289 19.3789 1.84908 19.3789 2.02539C19.3789 2.2017 19.2427 2.33789 19.0664 2.33789C18.8901 2.33789 18.7539 2.2017 18.7539 2.02539C18.7541 2.01893 18.7541 2.01251 18.7539 2.00605C18.7545 1.99293 18.7713 1.97979 18.7734 1.96729C18.7767 1.94135 18.7767 1.91511 18.7734 1.88917C18.8184 1.77486 18.9342 1.71335 19.0664 1.71335L19.0664 1.71289ZM15.5703 1.81055L18.1484 2.14258C18.1864 2.41983 18.3323 2.66277 18.5586 2.80664L18.0508 5.58012C17.6584 5.58012 17.3286 5.83861 17.1914 6.18555L13.3828 6.40043C13.2326 6.08737 12.9067 5.86105 12.543 5.85355L11.3906 3.37305C11.6074 3.20216 11.7422 2.9447 11.7422 2.65039C11.7422 2.63789 11.7427 2.62417 11.7422 2.61167L14.0859 1.92804C14.2566 2.11798 14.514 2.24054 14.7891 2.24054C15.1104 2.24054 15.3994 2.05873 15.5703 1.81085V1.81055ZM10.8047 2.33789C10.9122 2.33789 11.001 2.37414 11.0586 2.45508C11.0636 2.51151 11.0838 2.56551 11.1172 2.61133C11.1184 2.6232 11.1172 2.63821 11.1172 2.65009C11.1172 2.8264 10.981 2.96259 10.8047 2.96259C10.6875 2.96259 10.5831 2.89671 10.5312 2.80634C10.5256 2.79299 10.5191 2.78003 10.5117 2.76758C10.4967 2.7307 10.4922 2.69445 10.4922 2.65039C10.4922 2.47408 10.6284 2.33789 10.8047 2.33789H10.8047ZM19.7695 2.65039L25.1797 5.26762C25.1797 5.78168 25.6031 6.18555 26.1172 6.18555C26.156 6.18555 26.1967 6.17054 26.2344 6.16617L29.0664 10.8732C28.9199 11.0405 28.832 11.2608 28.832 11.4982C28.832 11.6428 28.8708 11.7666 28.9297 11.8888L28.6953 12.0646C28.5281 11.9155 28.3077 11.8107 28.0703 11.8107C27.7687 11.8107 27.4985 11.9753 27.3281 12.2013L23.7734 11.4005L22.25 11.0099C22.1608 10.5834 21.7623 10.2482 21.3125 10.2482C21.2913 10.2482 21.2747 10.2482 21.2539 10.2482L18.9297 6.88886C18.978 6.77736 19.0078 6.64623 19.0078 6.51773C19.0078 6.23573 18.8577 5.98867 18.6563 5.81461L19.2032 2.96304C19.4262 2.93179 19.6238 2.80986 19.7696 2.65054L19.7695 2.65039ZM10.1602 3.33398C10.3226 3.48673 10.546 3.58312 10.7852 3.58793L11.9375 6.08793C11.739 6.26199 11.6055 6.50893 11.6055 6.79105C11.6055 7.05787 11.7183 7.30461 11.8984 7.47461L10.082 11.2832C9.71329 11.3375 9.41746 11.6118 9.32031 11.9668L5.14062 13.2559L4.49609 13.4512C4.32229 13.2562 4.06966 13.1191 3.79297 13.1191C3.72871 13.1191 3.65827 13.126 3.59766 13.1385L2.97266 12.3572C3.04587 12.2253 3.08984 12.0881 3.08984 11.9275C3.08984 11.7 3.01331 11.4865 2.875 11.3221L4.86719 7.31824C4.89881 7.31824 4.93239 7.33762 4.96484 7.33762C5.47891 7.33762 5.90234 6.93368 5.90234 6.41962C5.90234 6.34037 5.88241 6.25918 5.86328 6.18524L10.1602 3.33368V3.33398ZM26.1172 4.93555C26.2935 4.93555 26.4297 5.0913 26.4297 5.26762C26.4297 5.44393 26.2935 5.56055 26.1172 5.56055C25.9409 5.56055 25.8047 5.44393 25.8047 5.26762C25.8047 5.0913 25.9409 4.93555 26.1172 4.93555ZM4.96484 6.08793C5.05299 6.08793 5.12218 6.12792 5.17969 6.18555C5.19363 6.23705 5.22052 6.28414 5.25781 6.3223C5.26638 6.35105 5.27731 6.38817 5.27731 6.41992C5.27731 6.59623 5.14111 6.71293 4.96481 6.71293C4.78853 6.71293 4.65231 6.59623 4.65231 6.41992C4.65231 6.24361 4.78853 6.08793 4.96481 6.08793H4.96484ZM18.0508 6.20512C18.2271 6.20512 18.3828 6.3413 18.3828 6.51762C18.3828 6.55574 18.356 6.60168 18.3438 6.6348C18.289 6.67303 18.2479 6.72779 18.2266 6.79105C18.1783 6.81855 18.1117 6.82981 18.0508 6.82981C17.8745 6.82981 17.7578 6.69362 17.7578 6.51731C17.7578 6.341 17.8745 6.20481 18.0508 6.20481V6.20512ZM12.5234 6.47855C12.6492 6.47855 12.7647 6.54892 12.8164 6.6543C12.7822 6.7022 12.7623 6.75878 12.7588 6.81753C12.7554 6.87627 12.7686 6.93479 12.7969 6.98637C12.7396 7.06593 12.6324 7.10355 12.5235 7.10355C12.4722 7.06665 12.4109 7.04617 12.3477 7.04481C12.273 6.99043 12.2305 6.89586 12.2305 6.79086C12.2305 6.61455 12.3472 6.47836 12.5235 6.47836L12.5234 6.47855ZM17.1719 6.81055C17.2928 7.18492 17.6365 7.45512 18.0508 7.45512C18.1951 7.45512 18.3376 7.41636 18.4609 7.35742L20.6484 10.5605C20.4969 10.729 20.3945 10.9436 20.3945 11.1855C20.3945 11.4675 20.5282 11.7177 20.7266 11.8887L19.0664 15.3847C19.0414 15.3847 19.0137 15.3847 18.9883 15.3847C18.5963 15.3847 18.2664 15.6438 18.1289 15.9902L14.3398 16.3027L14.125 16.3221C14.0005 15.9461 13.6595 15.6581 13.2461 15.6581C13.1604 15.6581 13.071 15.6749 12.9922 15.6968L10.9805 12.7671C11.0981 12.612 11.1562 12.4086 11.1562 12.2007C11.1562 11.8734 10.9857 11.6086 10.7266 11.439L12.5039 7.72806C12.5109 7.72818 12.5164 7.72806 12.5234 7.72806C12.9304 7.72806 13.2921 7.46718 13.4218 7.10306L17.1718 6.81013L17.1719 6.81055ZM21.3125 10.873C21.4822 10.873 21.6344 10.9989 21.6445 11.166C21.6306 11.2034 21.624 11.2432 21.625 11.2832C21.5868 11.4134 21.4581 11.498 21.3125 11.498C21.2982 11.498 21.2871 11.498 21.2735 11.498C21.2673 11.4913 21.2607 11.4848 21.254 11.4787C21.2407 11.4787 21.2273 11.4849 21.2149 11.4787C21.2084 11.4785 21.2019 11.4785 21.1954 11.4787C21.0843 11.4337 21.0196 11.3179 21.0196 11.1857C21.0196 11.0093 21.1363 10.8732 21.3126 10.8732L21.3125 10.873ZM29.7695 11.166C29.9458 11.166 30.082 11.3217 30.082 11.498C30.082 11.6744 29.9458 11.791 29.7695 11.791C29.7151 11.791 29.676 11.7741 29.6328 11.7523C29.6059 11.7199 29.5726 11.6933 29.5352 11.6741C29.4963 11.6229 29.457 11.5715 29.457 11.4984C29.457 11.4102 29.5 11.3215 29.5547 11.264C29.5688 11.2522 29.5819 11.2393 29.5938 11.2253C29.6108 11.2128 29.6328 11.214 29.6523 11.2059C29.6591 11.1997 29.6656 11.1932 29.6718 11.1865C29.7028 11.1759 29.7342 11.1671 29.7695 11.1671L29.7695 11.166ZM2.15234 11.5957C2.32864 11.5957 2.46484 11.7514 2.46484 11.9277C2.46484 12.104 2.32864 12.2207 2.15234 12.2207C1.97606 12.2207 1.83984 12.104 1.83984 11.9277C1.83984 11.7514 1.97606 11.5957 2.15234 11.5957ZM22.1133 11.6738L23.4609 11.9668L27.1523 12.9238C27.2214 13.303 27.5156 13.5962 27.8945 13.666L27.875 18.3144C27.4808 18.4257 27.1914 18.804 27.1914 19.2324C27.1914 19.2687 27.207 19.2951 27.2109 19.33L22.9727 20.3652C22.824 20.0365 22.4924 19.7988 22.1133 19.7988C21.9848 19.7988 21.8536 19.8288 21.7422 19.8769L19.7109 16.9277C19.8493 16.7658 19.9258 16.5498 19.9258 16.3222C19.9258 16.0554 19.8159 15.8116 19.6328 15.6387L21.3125 12.123H21.332C21.6607 12.1162 21.9492 11.9365 22.1133 11.6738H22.1133ZM10.2188 11.8887C10.395 11.8887 10.5312 12.0249 10.5312 12.2012C10.5312 12.3775 10.395 12.5137 10.2188 12.5137C10.0671 12.5137 9.93625 12.4185 9.90625 12.2793C9.90952 12.2534 9.90952 12.2271 9.90625 12.2012C9.90625 12.0249 10.0425 11.8887 10.2188 11.8887ZM29.457 12.3574C29.5529 12.3905 29.6624 12.4162 29.7695 12.4162L30.0234 13.4318C29.7557 13.599 29.5742 13.8961 29.5742 14.2325C29.5742 14.6395 29.8351 14.9652 30.1992 15.0919L30.2187 17.5138C29.9052 17.6673 29.6914 18.0028 29.6914 18.3732C29.6914 18.6695 29.8269 18.9251 30.0429 19.0959L29.9258 19.4474C29.9131 19.4469 29.8994 19.4474 29.8867 19.4474C29.669 19.4474 29.4595 19.5345 29.3008 19.6622L29.0273 19.4863C29.0529 19.4022 29.0664 19.3245 29.0664 19.2324C29.0664 18.8562 28.8442 18.5234 28.5195 18.373V13.5684C28.8133 13.4104 29.0078 13.121 29.0078 12.7675C29.0078 12.7488 29.0091 12.7275 29.0078 12.7088L29.457 12.3572V12.3574ZM28.0703 12.4355C28.1585 12.4355 28.2276 12.4755 28.2852 12.5332C28.2841 12.5769 28.2923 12.6204 28.3091 12.6607C28.3259 12.7011 28.351 12.7375 28.3828 12.7675C28.3828 12.8998 28.3018 12.996 28.1875 13.041C28.1616 13.0377 28.1353 13.0377 28.1094 13.041C28.1026 13.0471 28.0961 13.0536 28.0899 13.0604C28.0829 13.0608 28.0775 13.0604 28.0704 13.0604C27.8941 13.0604 27.7579 12.9437 27.7579 12.7674C27.7579 12.7424 27.7529 12.7124 27.7579 12.6893C27.7663 12.6704 27.7728 12.6507 27.7774 12.6306C27.8224 12.5162 27.9381 12.4352 28.0703 12.4352L28.0703 12.4355ZM9.39844 12.6504C9.55636 12.9409 9.86533 13.1387 10.2188 13.1387C10.298 13.1387 10.3792 13.118 10.4531 13.0999L12.4844 16.0491C12.37 16.2061 12.3086 16.3891 12.3086 16.596C12.3086 16.8584 12.4267 17.0906 12.6016 17.2601L11.3711 19.8382L10.9219 20.7952C10.8666 20.7846 10.804 20.7758 10.7461 20.7758C10.4154 20.7758 10.1303 20.9616 9.96484 21.2251L4.84766 19.8383C4.80691 19.4423 4.52366 19.0938 4.14453 18.9985C4.14638 18.979 4.14638 18.9593 4.14453 18.9398V14.9163C4.49035 14.7786 4.73047 14.468 4.73047 14.0765C4.73047 14.064 4.73099 14.0503 4.73047 14.0378L6.01953 13.6471L9.39844 12.651V12.6504ZM2.44531 12.7871L3.03125 13.5293C2.92115 13.6844 2.85547 13.8735 2.85547 14.0762C2.85547 14.4895 3.12686 14.8139 3.5 14.9355V19.0762C3.1865 19.2296 2.97266 19.5652 2.97266 19.9355C2.97266 20.0062 2.97703 20.0647 2.99216 20.1309L2.91403 20.209C2.7633 20.1064 2.57946 20.0332 2.38669 20.0332C2.35488 20.0332 2.32003 20.0332 2.28903 20.0332L2.03513 19.4863C2.23009 19.3155 2.34763 19.0794 2.34763 18.8027C2.34763 18.3679 2.05024 17.9897 1.6445 17.8847V14.916C2.03241 14.8016 2.30856 14.459 2.30856 14.0371C2.30856 13.7506 2.18355 13.4886 1.97653 13.3144L2.19138 12.8457C2.27857 12.8394 2.36528 12.8132 2.44528 12.7869L2.44531 12.7871ZM1.37109 13.705C1.38434 13.705 1.39734 13.705 1.41016 13.705C1.41637 13.7118 1.42288 13.7182 1.42966 13.7244C1.45653 13.7307 1.48391 13.7319 1.50778 13.7438C1.52034 13.7512 1.53339 13.7576 1.54684 13.7632C1.62978 13.8207 1.68356 13.9277 1.68356 14.0366C1.68356 14.2129 1.54736 14.3296 1.37106 14.3296C1.19478 14.3296 1.05856 14.2129 1.05856 14.0366C1.05856 13.8603 1.19478 13.7046 1.37106 13.7046L1.37109 13.705ZM3.79297 13.7438C3.89079 13.7438 3.96907 13.7919 4.02734 13.861C4.02531 13.9399 4.05322 14.0167 4.10547 14.0759C4.10547 14.2522 3.96926 14.3688 3.79297 14.3688C3.61668 14.3688 3.48047 14.2522 3.48047 14.0759C3.48047 13.8996 3.61668 13.7438 3.79297 13.7438ZM30.5117 13.9C30.688 13.9 30.8242 14.0558 30.8242 14.2321C30.8242 14.4084 30.688 14.525 30.5117 14.525C30.3354 14.525 30.1992 14.4084 30.1992 14.2321C30.1992 14.0558 30.3354 13.9 30.5117 13.9ZM18.9883 16.0094C19.0323 16.0094 19.0674 16.0157 19.1055 16.0288C19.118 16.0362 19.1311 16.0426 19.1445 16.0482C19.2383 16.1032 19.3008 16.2044 19.3008 16.3216C19.3008 16.4979 19.1646 16.6341 18.9883 16.6341C18.812 16.6341 18.6758 16.4979 18.6758 16.3216C18.6758 16.1453 18.812 16.0091 18.9883 16.0091V16.0094ZM13.207 16.2829C13.2207 16.2829 13.2318 16.2829 13.2461 16.2829C13.4224 16.2829 13.5586 16.419 13.5586 16.5954C13.5586 16.6079 13.5598 16.6222 13.5586 16.6341C13.5578 16.647 13.5578 16.66 13.5586 16.6729C13.5262 16.8121 13.3977 16.9072 13.2461 16.9072C13.2163 16.9072 13.1947 16.8947 13.168 16.8879C13.1491 16.8795 13.1295 16.873 13.1094 16.8685C13.0127 16.8185 12.9336 16.7169 12.9336 16.5951C12.9336 16.5316 12.9624 16.4884 12.9922 16.4388C13.0728 16.4208 13.143 16.3717 13.1875 16.3021C13.1952 16.3021 13.1991 16.2834 13.207 16.2827L13.207 16.2829ZM18.1094 16.6149C18.231 16.9881 18.5749 17.2594 18.9883 17.2594C19.0462 17.2594 19.1088 17.25 19.1641 17.24L21.293 20.3065C21.2212 20.4401 21.1758 20.595 21.1758 20.7557C21.1758 21.052 21.3113 21.3076 21.5273 21.4784L19.7695 25.1893C19.3727 25.2056 19.0476 25.4889 18.9297 25.8534L14.8867 26.1854C14.7381 25.8566 14.4065 25.619 14.0273 25.619C13.9352 25.619 13.838 25.6327 13.7539 25.6577L12.5039 23.8413L11.4492 22.3179C11.5923 22.1547 11.7031 21.9639 11.7031 21.7319C11.7031 21.4999 11.5925 21.2922 11.4492 21.1265L13.1875 17.5327C13.2063 17.5327 13.227 17.5327 13.2461 17.5327C13.638 17.5327 13.9648 17.2901 14.1054 16.9468L17.1914 16.6929L18.1093 16.6147L18.1094 16.6149ZM30.6289 18.0407C30.8052 18.0407 30.9414 18.1964 30.9414 18.3727C30.9414 18.5491 30.8052 18.6657 30.6289 18.6657C30.4526 18.6657 30.3164 18.5491 30.3164 18.3727C30.3164 18.1964 30.4526 18.0407 30.6289 18.0407ZM1.37109 18.4707C1.39057 18.4725 1.41018 18.4725 1.42966 18.4707C1.59671 18.4807 1.72263 18.633 1.72263 18.8027C1.72263 18.979 1.58642 19.0957 1.41013 19.0957C1.23384 19.0957 1.09763 18.979 1.09763 18.8027C1.09763 18.6396 1.21479 18.4898 1.37106 18.4707H1.37109ZM28.0898 18.9004C28.1024 18.9077 28.1154 18.9142 28.1289 18.9197C28.1355 18.9199 28.142 18.9192 28.1484 18.9197C28.1672 18.9281 28.1869 18.9346 28.207 18.9391C28.3398 18.9772 28.4413 19.0867 28.4413 19.2321C28.4413 19.4084 28.3051 19.525 28.1288 19.525C28.0214 19.525 27.9292 19.4857 27.8749 19.4079C27.8642 19.3869 27.8511 19.3672 27.8359 19.3491C27.8209 19.3122 27.8164 19.2761 27.8164 19.2319C27.8164 19.0689 27.9335 18.9191 28.0898 18.8999L28.0898 18.9004ZM3.87109 19.6035C3.8841 19.6043 3.89715 19.6043 3.91016 19.6035C4.08645 19.6035 4.22266 19.7592 4.22266 19.9355C4.22266 20.1119 4.08645 20.2285 3.91016 20.2285C3.83238 20.2285 3.76752 20.2135 3.71484 20.1697C3.70924 20.1564 3.70273 20.1434 3.69534 20.131C3.69554 20.1245 3.69554 20.1181 3.69534 20.1116C3.67577 20.0581 3.64202 20.0108 3.59769 19.9749C3.59581 19.9612 3.59769 19.9499 3.59769 19.9362C3.59769 19.7819 3.70851 19.6533 3.85159 19.6237C3.85838 19.6175 3.86488 19.6111 3.87109 19.6043V19.6035ZM27.543 19.9355C27.7032 20.0657 27.9067 20.1504 28.1289 20.1504C28.3217 20.1504 28.5055 20.0947 28.6562 19.9941L28.9688 20.209C28.9563 20.2696 28.9492 20.34 28.9492 20.4043C28.9492 20.6462 29.0516 20.844 29.2032 21.0097L26.8594 25.1504C26.8406 25.1504 26.8199 25.1504 26.8008 25.1504C26.2868 25.1504 25.8633 25.5934 25.8633 26.1074C25.8633 26.1505 25.8772 26.183 25.8828 26.2246L21.9375 28.8418C21.7784 28.7195 21.5836 28.627 21.3711 28.627C21.3387 28.627 21.3051 28.6432 21.2735 28.6463L20.4922 26.7713C20.6524 26.6045 20.7461 26.3936 20.7461 26.1463C20.7461 25.8991 20.6524 25.6714 20.4922 25.5018L22.2891 21.6541C22.6365 21.5904 22.9107 21.3419 23.0117 21.0096L27.543 19.9354L27.543 19.9355ZM29.8867 20.0722C30.063 20.0722 30.1992 20.228 30.1992 20.4043C30.1992 20.5806 30.063 20.6972 29.8867 20.6972C29.7104 20.6972 29.5742 20.5806 29.5742 20.4043C29.5742 20.228 29.7104 20.0722 29.8867 20.0722ZM22.1133 20.4238C22.2896 20.4238 22.4258 20.5795 22.4258 20.7559C22.4258 20.9322 22.2896 21.0488 22.1133 21.0488C21.937 21.0488 21.8008 20.9322 21.8008 20.7559C21.8008 20.7071 21.802 20.6409 21.8203 20.5996C21.8337 20.5941 21.8468 20.5876 21.8593 20.5802C21.8735 20.5685 21.8866 20.5555 21.8984 20.5415C21.9125 20.5297 21.9256 20.5168 21.9375 20.5028C21.9443 20.4966 21.9508 20.4901 21.957 20.4834C22.0035 20.454 22.0523 20.4246 22.1132 20.4246L22.1133 20.4238ZM4.65234 20.5019L9.84766 21.8691C9.91846 22.3133 10.2822 22.6504 10.7461 22.6504C10.7976 22.6504 10.8529 22.6391 10.9023 22.631L13.2461 26.049C13.1455 26.1997 13.0898 26.3836 13.0898 26.5763C13.0898 26.9769 13.3401 27.3042 13.6953 27.4357L13.6758 29.5646C13.5576 29.6134 13.4519 29.6894 13.3633 29.7794L7.42581 27.3185C7.42831 27.291 7.42581 27.2685 7.42581 27.2404C7.42581 26.7263 7.00238 26.2834 6.48831 26.2834C6.40264 26.2834 6.31324 26.3002 6.23441 26.3221L3.08984 21.5762C3.23311 21.4129 3.32422 21.2223 3.32422 20.9902C3.32422 20.9321 3.31509 20.8697 3.30472 20.8144L3.42191 20.7168C3.5628 20.8025 3.73348 20.8535 3.91019 20.8535C4.20653 20.8535 4.47843 20.718 4.65238 20.5019H4.65234ZM2.38672 20.6582C2.56301 20.6582 2.69922 20.8139 2.69922 20.9902C2.69922 21.1665 2.56301 21.2832 2.38672 21.2832C2.21043 21.2832 2.07422 21.1665 2.07422 20.9902C2.07422 20.8813 2.13134 20.7741 2.21094 20.7168C2.23105 20.7123 2.25067 20.7058 2.2695 20.6974C2.3065 20.6812 2.34261 20.6587 2.38669 20.6587L2.38672 20.6582ZM10.7461 21.4004C10.7768 21.4004 10.8156 21.4116 10.8438 21.4197C10.8796 21.4642 10.9268 21.498 10.9805 21.5174C11.0307 21.5737 11.0781 21.6506 11.0781 21.7322C11.0781 21.81 11.046 21.8749 11 21.9275C10.9253 21.9356 10.8559 21.9702 10.8047 22.0252C10.7871 22.0252 10.7646 22.0252 10.7461 22.0252C10.5698 22.0252 10.4532 21.9085 10.4532 21.7322C10.4532 21.5559 10.5698 21.4002 10.7461 21.4002L10.7461 21.4004ZM26.8008 25.7754C26.9771 25.7754 27.1133 25.9311 27.1133 26.1074C27.1133 26.2837 26.9771 26.4004 26.8008 26.4004C26.6245 26.4004 26.4883 26.2837 26.4883 26.1074C26.4883 25.9311 26.6245 25.7754 26.8008 25.7754ZM19.8086 25.8141C19.9849 25.8141 20.1211 25.9699 20.1211 26.1462C20.1211 26.3225 19.9849 26.4391 19.8086 26.4391C19.6606 26.4391 19.5294 26.3581 19.4961 26.2243C19.4969 26.2114 19.4969 26.1985 19.4961 26.1855C19.4969 26.1726 19.4969 26.1597 19.4961 26.1468C19.4969 26.1339 19.4969 26.1209 19.4961 26.108C19.5127 25.949 19.6446 25.8151 19.8086 25.8151V25.8141ZM14.0273 26.2438C14.2036 26.2438 14.3398 26.3996 14.3398 26.5759C14.3398 26.7522 14.2036 26.8688 14.0273 26.8688C13.8511 26.8688 13.7148 26.7522 13.7148 26.5759C13.7148 26.3996 13.8511 26.2438 14.0273 26.2438ZM18.9688 26.5173C19.1135 26.833 19.4213 27.0568 19.7891 27.0641C19.7954 27.0643 19.8022 27.0641 19.8086 27.0641L20.6484 28.9977C20.5219 29.1557 20.4379 29.3492 20.4336 29.5641L18.3437 30.1696C18.1712 29.9311 17.8935 29.7595 17.582 29.7595C17.1965 29.7595 16.8642 30.0078 16.7227 30.3454L14.9258 30.1696C14.8384 29.8802 14.6239 29.645 14.3398 29.5446V27.4352C14.6161 27.3398 14.814 27.1257 14.9062 26.8493L18.9688 26.5173ZM6.48828 26.9079C6.66458 26.9079 6.80078 27.0636 6.80078 27.2399C6.80078 27.2468 6.80124 27.2524 6.80078 27.2593C6.75691 27.3082 6.72958 27.3697 6.72266 27.4351C6.66441 27.501 6.5861 27.5327 6.48828 27.5327C6.31199 27.5327 6.17578 27.4161 6.17578 27.2398C6.17578 27.1667 6.21509 27.0981 6.25391 27.0445C6.31717 27.0231 6.37193 26.982 6.41016 26.9273C6.43603 26.9204 6.45966 26.9079 6.48828 26.9079ZM21.3711 29.2516C21.4592 29.2516 21.5284 29.2916 21.5859 29.3493C21.6027 29.3938 21.6294 29.4339 21.6641 29.4665C21.6761 29.5002 21.6836 29.5457 21.6836 29.5837C21.6836 29.76 21.5474 29.8766 21.3711 29.8766C21.1948 29.8766 21.0586 29.76 21.0586 29.5837C21.0586 29.4579 21.1323 29.3425 21.2343 29.2907C21.2408 29.2909 21.2473 29.2909 21.2538 29.2907C21.2908 29.2745 21.327 29.252 21.371 29.252L21.3711 29.2516ZM14.0273 30.111C14.1596 30.111 14.2721 30.1921 14.3203 30.3063C14.3228 30.3126 14.3184 30.3207 14.3203 30.3257C14.3201 30.3322 14.3201 30.3386 14.3203 30.345C14.2837 30.4177 14.2767 30.5017 14.3008 30.5794C14.2476 30.6771 14.1499 30.7356 14.0274 30.7356C13.8511 30.7356 13.7149 30.6191 13.7149 30.4427C13.7149 30.2664 13.8511 30.1106 14.0274 30.1106L14.0273 30.111ZM17.582 30.3845C17.7583 30.3845 17.8945 30.5402 17.8945 30.7165C17.8945 30.8928 17.7583 31.0095 17.582 31.0095C17.4057 31.0095 17.2695 30.8928 17.2695 30.7165C17.2695 30.5402 17.4057 30.3845 17.582 30.3845Z" fill="white"/>
</svg>
